<?xml version="1.0" encoding="utf-8"?>
<!-- Generator: Adobe Illustrator 22.0.1, SVG Export Plug-In . SVG Version: 6.00 Build 0)  -->
<svg version="1.1" id="Layer_1" xmlns="http://www.w3.org/2000/svg" xmlns:xlink="http://www.w3.org/1999/xlink" x="0px" y="0px"
	 viewBox="0 0 161 52" style="enable-background:new 0 0 161 52;" xml:space="preserve">
<style type="text/css">
	.st0{opacity:0.2;fill:#FFFFFF;enable-background:new    ;}
	.st1{fill:#FFFFFF;}
	.st2{opacity:0.5;fill:#FFFFFF;enable-background:new    ;}
</style>
<title>color_logo</title>
<desc>Created with Sketch.</desc>
<g id="Logo">
	<g id="Desktop" transform="translate(-690.000000, -103.000000)">
		<g id="White_logo" transform="translate(690.000000, 103.000000)">
			<g id="Group-3">
				<g id="Group-2-Copy-3">
					<g id="logo">
						<path id="Fill-1" class="st0" d="M40.8,12.8L23.9,3c-1.2-0.7-2.7-0.7-4,0L3,12.8c-1.2,0.7-2,2-2,3.4V20
							c5.2,0,8.4,2.7,11.1,5.1c2.7,2.3,5.3,4.6,9.8,4.6c4.2,0,6.6-3.7,9.2-7.6c2.5-3.8,5.3-8.2,10.3-8.9C41.2,13,41,12.9,40.8,12.8"
							/>
						<path id="Fill-7" class="st1" d="M42.4,14.6c-0.2-0.5-0.6-1-1.1-1.4c-4.9,0.7-7.8,5-10.3,8.9c-2.6,3.9-5,7.6-9.2,7.6
							c-4.5,0-7.1-2.2-9.8-4.6c-2.6-2.3-5.7-5-11-5v1.5v1.5c4.1,0,6.5,2,9.2,4.4c2.9,2.5,6.1,5.3,11.7,5.3c5.8,0,8.9-4.8,11.7-9
							c2.4-3.6,5.5-7,9.2-7.6C42.8,15.6,42.7,15.1,42.4,14.6"/>
						<path id="Fill-4" class="st2" d="M42.8,16.2c-3.7,0.5-6.8,4-9.2,7.6c-2.8,4.2-5.9,9-11.7,9c-5.6,0-8.9-2.8-11.7-5.3
							c-2.7-2.3-5-4.4-9.2-4.4v12.7c0,1.4,0.8,2.7,2,3.4L19.9,49c1.2,0.7,2.7,0.7,4,0l16.9-9.8c1.2-0.7,2-2,2-3.4L42.8,16.2
							L42.8,16.2"/>
					</g>
				</g>
			</g>
		</g>
	</g>
</g>
<g>
	<g id="Logo_1_">
		<g id="Desktop_1_" transform="translate(-149.000000, -103.000000)">
			<g id="color_logo" transform="translate(149.000000, 103.000000)">
				<g id="logo_1_">
					<path id="Fill-10_1_" class="st1" d="M61.4,25.9c1.8,0,3-0.9,3-2.3s-1.2-2.3-3-2.3h-3.5V26h3.5V25.9z M54.4,18h7.4
						c3.6,0,6.2,2.3,6.2,5.6s-2.6,5.6-6.2,5.6h-3.9v5.3h-3.5C54.4,34.5,54.4,18,54.4,18z"/>
					<path id="Fill-12_1_" class="st1" d="M73.1,26.9h5.5c-0.3-1.2-1.2-2-2.7-2C74.7,24.9,73.6,25.7,73.1,26.9 M78.9,30.6l2.2,2.3
						c-1.1,1.2-3.2,1.9-5.1,1.9c-3.7,0-6.6-2.7-6.6-6.5c0-3.7,2.8-6.5,6.4-6.5c3.9,0,6.2,3,6.2,7.6h-9c0.4,1.3,1.5,2.3,3,2.3
						C77,31.7,78.2,31.2,78.9,30.6"/>
					<path id="Fill-14_1_" class="st1" d="M92.1,21.8v3c-2.6,0-4.2,1.5-4.2,3.8v5.9h-3.5V22.1h3.5v2.3
						C88.7,22.8,90.2,21.8,92.1,21.8"/>
					<path id="Fill-16_1_" class="st1" d="M98.3,22.1h2.7v2.8h-2.7v9.6h-3.4v-9.6h-1.7v-2.8h1.7V21c0-2.2,1.5-3.8,3.7-3.8
						c1,0,2.1,0.4,2.9,1.1l-0.8,2.1c-0.2-0.2-0.7-0.4-1.2-0.4c-0.6,0-1.2,0.6-1.2,1.4V22.1z"/>
					<path id="Fill-18_1_" class="st1" d="M116.6,26.2c0-2.9-2.4-5.3-5.1-5.3c-2.8,0-5.1,2.4-5.1,5.3s2.4,5.3,5.1,5.3
						C114.2,31.6,116.6,29.1,116.6,26.2 M102.7,26.2c0-4.6,4-8.5,8.8-8.5s8.8,3.9,8.8,8.5s-4,8.5-8.8,8.5
						C106.7,34.8,102.7,30.9,102.7,26.2"/>
					<path id="Fill-20_1_" class="st1" d="M132.7,28.3c0-2.1-1.4-3.5-3.3-3.5c-1.7,0-3,1.2-3.1,3v1c0.2,1.8,1.4,3.1,3.1,3.1
						C131.3,31.8,132.7,30.4,132.7,28.3 M136.1,28.3c0,3.8-2.4,6.5-5.7,6.5c-1.7,0-3.2-0.7-4.2-2v5.9h-3.5V22.1h3.5v1.7
						c1-1.3,2.4-2,4.2-2C133.7,21.8,136.1,24.5,136.1,28.3"/>
					<path id="Fill-22_1_" class="st1" d="M137.6,32.9l1.5-2.4c1.1,0.8,2.5,1.4,4.2,1.4c0.9,0,1.6-0.4,1.6-0.9c0-0.8-0.9-1-2.2-1.3
						c-2.5-0.6-4.5-1.3-4.5-3.8c0-2.4,1.9-4,4.8-4c1.8,0,3.5,0.6,4.9,1.5l-1.4,2.5c-1.1-0.7-2.4-1.1-3.5-1.1c-0.9,0-1.5,0.3-1.5,0.7
						c0,0.7,0.5,0.9,2.2,1.3c2.1,0.6,4.5,1.3,4.5,4c0,2.4-2,4-5,4C141.2,34.8,139.1,34.1,137.6,32.9"/>
				</g>
			</g>
		</g>
	</g>
	<g id="Group_1_" transform="translate(147.000000, 0.000000)">
		<path id="R_1_" class="st1" d="M7,19.1H6.1l-1-1.4H4.3v1.4H3.5v-4.2h1.9c0.9,0,1.6,0.6,1.6,1.4c0,0.6-0.4,1.1-1.1,1.3L7,19.1z
			 M4.3,15.6V17h1c0.6,0,0.9-0.3,0.9-0.7c0-0.4-0.4-0.7-0.9-0.7H4.3z"/>
		<path id="Combined-Shape_1_" class="st1" d="M5.3,21.2C2.9,21.2,1,19.3,1,17s1.9-4.2,4.2-4.2s4.2,1.9,4.2,4.2S7.6,21.2,5.3,21.2z
			 M5.3,20.5c2,0,3.5-1.6,3.5-3.5s-1.6-3.5-3.5-3.5S1.7,15,1.7,17S3.3,20.5,5.3,20.5z"/>
	</g>
</g>
</svg>
