<?xml version="1.0" encoding="utf-8"?>
<!-- Generator: Adobe Illustrator 22.0.1, SVG Export Plug-In . SVG Version: 6.00 Build 0)  -->
<svg version="1.1" id="Layer_1" xmlns="http://www.w3.org/2000/svg" xmlns:xlink="http://www.w3.org/1999/xlink" x="0px" y="0px"
	 viewBox="0 0 161 52" style="enable-background:new 0 0 161 52;" xml:space="preserve">
<title>color_logo</title>
<desc>Created with Sketch.</desc>
<g>
	<path d="M23.6,29.7c4.2,0,6.6-3.7,9.2-7.6c2.5-3.8,5.3-8.2,10.3-8.9c-0.2-0.2-0.4-0.3-0.6-0.4L25.6,3c-1.2-0.7-2.7-0.7-4,0
		L4.7,12.8c-1.2,0.7-2,2-2,3.4V20c5.2,0,8.4,2.7,11.1,5.1C16.5,27.4,19.1,29.7,23.6,29.7z"/>
	<path d="M35.3,23.8c-2.8,4.2-5.9,9-11.7,9c-5.6,0-8.9-2.8-11.7-5.3c-2.7-2.3-5-4.4-9.2-4.4v12.7c0,1.4,0.8,2.7,2,3.4L21.6,49
		c1.2,0.7,2.7,0.7,4,0l16.9-9.8c1.2-0.7,2-2,2-3.4V16.2C40.8,16.7,37.7,20.2,35.3,23.8z"/>
	<path d="M63.5,18h-7.4v16.5h3.5v-5.3h3.9c3.6,0,6.2-2.3,6.2-5.6C69.7,20.3,67.1,18,63.5,18z M63.1,25.9L63.1,25.9L59.6,26v-4.7h3.5
		c1.8,0,3,0.9,3,2.3C66.1,25,64.9,25.9,63.1,25.9z"/>
	<path d="M77.5,21.8c-3.6,0-6.4,2.8-6.4,6.5c0,3.8,2.9,6.5,6.6,6.5c1.9,0,4-0.7,5.1-1.9l-2.2-2.3c-0.7,0.6-1.9,1.1-2.9,1.1
		c-1.5,0-2.6-1-3-2.3h9C83.7,24.8,81.4,21.8,77.5,21.8z M74.8,26.9c0.5-1.2,1.6-2,2.8-2c1.5,0,2.4,0.8,2.7,2H74.8z"/>
	<path d="M89.6,24.4v-2.3h-3.5v12.4h3.5v-5.9c0-2.3,1.6-3.8,4.2-3.8v-3C91.9,21.8,90.4,22.8,89.6,24.4z"/>
	<path d="M101.2,20c0.5,0,1,0.2,1.2,0.4l0.8-2.1c-0.8-0.7-1.9-1.1-2.9-1.1c-2.2,0-3.7,1.6-3.7,3.8v1.1h-1.7v2.8h1.7v9.6h3.4v-9.6
		h2.7v-2.8H100v-0.7C100,20.6,100.6,20,101.2,20z"/>
	<path d="M113.2,17.7c-4.8,0-8.8,3.9-8.8,8.5c0,4.7,4,8.6,8.8,8.5c4.8,0,8.8-3.9,8.8-8.5C122,21.6,118,17.7,113.2,17.7z M113.2,31.5
		c-2.7,0-5.1-2.4-5.1-5.3c0-2.9,2.3-5.3,5.1-5.3c2.7,0,5.1,2.4,5.1,5.3C118.3,29.1,115.9,31.6,113.2,31.5z"/>
	<path d="M132.1,21.8c-1.8,0-3.2,0.7-4.2,2v-1.7h-3.5v16.6h3.5v-5.9c1,1.3,2.5,2,4.2,2c3.3,0,5.7-2.7,5.7-6.5S135.4,21.8,132.1,21.8
		z M131.1,31.9c-1.7,0-2.9-1.3-3.1-3.1v-1c0.1-1.8,1.4-3,3.1-3c1.9,0,3.3,1.4,3.3,3.5C134.4,30.4,133,31.8,131.1,31.9z"/>
	<path d="M145.4,26.8c-1.7-0.4-2.2-0.6-2.2-1.3c0-0.4,0.6-0.7,1.5-0.7c1.1,0,2.4,0.4,3.5,1.1l1.4-2.5c-1.4-0.9-3.1-1.5-4.9-1.5
		c-2.9,0-4.8,1.6-4.8,4c0,2.5,2,3.2,4.5,3.8c1.3,0.3,2.2,0.5,2.2,1.3c0,0.5-0.7,0.9-1.6,0.9c-1.7,0-3.1-0.6-4.2-1.4l-1.5,2.4
		c1.5,1.2,3.6,1.9,5.6,1.9c3,0,5-1.6,5-4C149.9,28.1,147.5,27.4,145.4,26.8z"/>
	<path d="M155.8,16.3c0-0.9-0.7-1.4-1.6-1.4h-1.9v4.2h0.8v-1.4h0.8l1,1.4h0.9l-1.1-1.5C155.3,17.4,155.8,16.9,155.8,16.3z M154,17
		h-1v-1.4h1c0.6,0,0.9,0.3,0.9,0.7C154.9,16.7,154.6,17,154,17z"/>
	<path d="M154,12.8c-2.3,0-4.2,1.9-4.2,4.2s1.9,4.2,4.2,4.2c2.3,0,4.2-1.9,4.2-4.2S156.3,12.8,154,12.8z M154,20.5
		c-2,0-3.5-1.6-3.5-3.5s1.6-3.5,3.5-3.5s3.5,1.6,3.5,3.5S156,20.5,154,20.5z"/>
</g>
</svg>
