<?xml version="1.0" encoding="utf-8"?>
<!-- Generator: Adobe Illustrator 22.0.1, SVG Export Plug-In . SVG Version: 6.00 Build 0)  -->
<svg version="1.1" id="Layer_1" xmlns="http://www.w3.org/2000/svg" xmlns:xlink="http://www.w3.org/1999/xlink" x="0px" y="0px"
	 viewBox="0 0 42 47" style="enable-background:new 0 0 42 47;" xml:space="preserve">
<title>color_sygnet</title>
<desc>Created with Sketch.</desc>
<g>
	<path d="M20.9,27.2c4.2,0,6.6-3.7,9.2-7.6c2.5-3.8,5.3-8.2,10.3-8.9c-0.2-0.1-0.4-0.3-0.6-0.4L22.9,0.5c-1.2-0.7-2.7-0.7-4,0
		L2,10.3c-1.2,0.7-2,2-2,3.4v3.8c5.2,0,8.4,2.7,11.1,5.1C13.8,25,16.4,27.2,20.9,27.2z"/>
	<path d="M41.8,13.7c-3.7,0.5-6.8,3.9-9.2,7.6c-2.8,4.2-5.9,9-11.7,9c-5.6,0-8.9-2.8-11.7-5.3c-2.7-2.3-5-4.4-9.2-4.4v12.7
		c0,1.4,0.8,2.7,2,3.4l16.9,9.8c1.2,0.7,2.7,0.7,4,0l16.9-9.8c1.2-0.7,2-2,2-3.4L41.8,13.7C41.8,13.7,41.8,13.7,41.8,13.7z"/>
</g>
</svg>
