<?xml version="1.0" encoding="utf-8"?>
<!-- Generator: Adobe Illustrator 22.0.1, SVG Export Plug-In . SVG Version: 6.00 Build 0)  -->
<svg version="1.1" id="Layer_1" xmlns="http://www.w3.org/2000/svg" xmlns:xlink="http://www.w3.org/1999/xlink" x="0px" y="0px"
	 viewBox="0 0 161 52" style="enable-background:new 0 0 161 52;" xml:space="preserve">
<style type="text/css">
	.st0{fill:#8372FF;}
	.st1{fill:#5842FF;}
	.st2{fill:#0B0072;}
</style>
<title>color_logo</title>
<desc>Created with Sketch.</desc>
<g id="Logo">
	<g id="Desktop" transform="translate(-149.000000, -103.000000)">
		<g id="color_logo" transform="translate(149.000000, 103.000000)">
			<g id="logo">
				<path id="Fill-1" class="st0" d="M42.5,12.8L25.6,3c-1.2-0.7-2.7-0.7-4,0L4.7,12.8c-1.2,0.7-2,2-2,3.4V20
					c5.2,0,8.4,2.7,11.1,5.1c2.7,2.3,5.3,4.6,9.8,4.6c4.2,0,6.6-3.7,9.2-7.6c2.5-3.8,5.3-8.2,10.3-8.9C42.9,13,42.7,12.9,42.5,12.8"
					/>
				<path id="Fill-4" class="st1" d="M44.5,16.2c-3.7,0.5-6.8,4-9.2,7.6c-2.8,4.2-5.9,9-11.7,9c-5.6,0-8.9-2.8-11.7-5.3
					c-2.7-2.3-5-4.4-9.2-4.4v12.7c0,1.4,0.8,2.7,2,3.4L21.6,49c1.2,0.7,2.7,0.7,4,0l16.9-9.8c1.2-0.7,2-2,2-3.4L44.5,16.2L44.5,16.2
					"/>
				<path id="Fill-10" class="st2" d="M63.1,25.9c1.8,0,3-0.9,3-2.3s-1.2-2.3-3-2.3h-3.5V26h3.5V25.9z M56.1,18h7.4
					c3.6,0,6.2,2.3,6.2,5.6s-2.6,5.6-6.2,5.6h-3.9v5.3h-3.5C56.1,34.5,56.1,18,56.1,18z"/>
				<path id="Fill-12" class="st2" d="M74.8,26.9h5.5c-0.3-1.2-1.2-2-2.7-2C76.4,24.9,75.3,25.7,74.8,26.9 M80.6,30.6l2.2,2.3
					c-1.1,1.2-3.2,1.9-5.1,1.9c-3.7,0-6.6-2.7-6.6-6.5c0-3.7,2.8-6.5,6.4-6.5c3.9,0,6.2,3,6.2,7.6h-9c0.4,1.3,1.5,2.3,3,2.3
					C78.7,31.7,79.9,31.2,80.6,30.6"/>
				<path id="Fill-14" class="st2" d="M93.8,21.8v3c-2.6,0-4.2,1.5-4.2,3.8v5.9h-3.5V22.1h3.5v2.3C90.4,22.8,91.9,21.8,93.8,21.8"/>
				<path id="Fill-16" class="st2" d="M100,22.1h2.7v2.8H100v9.6h-3.4v-9.6h-1.7v-2.8h1.7V21c0-2.2,1.5-3.8,3.7-3.8
					c1,0,2.1,0.4,2.9,1.1l-0.8,2.1c-0.2-0.2-0.7-0.4-1.2-0.4c-0.6,0-1.2,0.6-1.2,1.4V22.1z"/>
				<path id="Fill-18" class="st1" d="M118.3,26.2c0-2.9-2.4-5.3-5.1-5.3c-2.8,0-5.1,2.4-5.1,5.3s2.4,5.3,5.1,5.3
					C115.9,31.6,118.3,29.1,118.3,26.2 M104.4,26.2c0-4.6,4-8.5,8.8-8.5s8.8,3.9,8.8,8.5s-4,8.5-8.8,8.5
					C108.4,34.8,104.4,30.9,104.4,26.2"/>
				<path id="Fill-20" class="st1" d="M134.4,28.3c0-2.1-1.4-3.5-3.3-3.5c-1.7,0-3,1.2-3.1,3v1c0.2,1.8,1.4,3.1,3.1,3.1
					C133,31.8,134.4,30.4,134.4,28.3 M137.8,28.3c0,3.8-2.4,6.5-5.7,6.5c-1.7,0-3.2-0.7-4.2-2v5.9h-3.5V22.1h3.5v1.7
					c1-1.3,2.4-2,4.2-2C135.4,21.8,137.8,24.5,137.8,28.3"/>
				<path id="Fill-22" class="st1" d="M139.3,32.9l1.5-2.4c1.1,0.8,2.5,1.4,4.2,1.4c0.9,0,1.6-0.4,1.6-0.9c0-0.8-0.9-1-2.2-1.3
					c-2.5-0.6-4.5-1.3-4.5-3.8c0-2.4,1.9-4,4.8-4c1.8,0,3.5,0.6,4.9,1.5l-1.4,2.5c-1.1-0.7-2.4-1.1-3.5-1.1c-0.9,0-1.5,0.3-1.5,0.7
					c0,0.7,0.5,0.9,2.2,1.3c2.1,0.6,4.5,1.3,4.5,4c0,2.4-2,4-5,4C142.9,34.8,140.8,34.1,139.3,32.9"/>
			</g>
		</g>
	</g>
</g>
<g id="Group" transform="translate(147.000000, 0.000000)">
	<path id="R" class="st2" d="M8.8,19.1H7.9l-1-1.4H6v1.4H5.2v-4.2h1.9c0.9,0,1.6,0.6,1.6,1.4c0,0.6-0.4,1.1-1.1,1.3L8.8,19.1z
		 M6,15.6V17h1c0.6,0,0.9-0.3,0.9-0.7c0-0.4-0.4-0.7-0.9-0.7H6z"/>
	<path id="Combined-Shape" class="st2" d="M7,21.2c-2.3,0-4.2-1.9-4.2-4.2s1.9-4.2,4.2-4.2s4.2,1.9,4.2,4.2S9.3,21.2,7,21.2z
		 M7,20.5c2,0,3.5-1.6,3.5-3.5S9,13.5,7,13.5S3.5,15,3.5,17S5,20.5,7,20.5z"/>
</g>
</svg>
