<?xml version="1.0" encoding="UTF-8"?>
<svg width="42px" height="47px" viewBox="0 0 42 47" version="1.1" xmlns="http://www.w3.org/2000/svg" xmlns:xlink="http://www.w3.org/1999/xlink">
    <!-- Generator: Sketch 51.2 (57519) - http://www.bohemiancoding.com/sketch -->
    <title>color_logo</title>
    <desc>Created with Sketch.</desc>
    <defs></defs>
    <g id="Logo" stroke="none" stroke-width="1" fill="none" fill-rule="evenodd">
        <g id="Desktop" transform="translate(-221.000000, -277.000000)">
            <g id="color_logo" transform="translate(221.000000, 277.000000)">
                <path d="M39.7793,10.293 L22.8753,0.533 C21.6443,-0.178 20.1263,-0.178 18.8943,0.533 L1.9903,10.293 C0.7583,11.004 0.0003,12.318 0.0003,13.741 L0.0003,17.539 C5.2463,17.539 8.3673,20.248 11.1223,22.638 C13.8223,24.981 16.3733,27.193 20.8843,27.193 C25.0783,27.193 27.5013,23.491 30.0663,19.572 C32.5823,15.727 35.4143,11.401 40.3333,10.686 C40.1613,10.541 39.9783,10.408 39.7793,10.293" id="Fill-1" fill="#5055A5"></path>
                <path d="M41.7608,13.6572 C38.0608,14.1902 34.9378,17.6072 32.5758,21.2152 C29.8218,25.4232 26.6998,30.1932 20.8848,30.1932 C15.2528,30.1932 12.0138,27.3832 9.1568,24.9032 C6.4568,22.5612 4.1258,20.5392 -0.0002,20.5392 L-0.0002,33.2602 C-0.0002,34.6812 0.7588,35.9962 1.9908,36.7072 L18.8948,46.4672 C20.1258,47.1782 21.6438,47.1782 22.8758,46.4672 L39.7798,36.7072 C41.0108,35.9962 41.7698,34.6812 41.7698,33.2602 L41.7698,13.7402 C41.7698,13.7122 41.7608,13.6852 41.7608,13.6572" id="Fill-4" fill="#33377A"></path>
            </g>
        </g>
    </g>
</svg>